<svg width="18" height="18" viewBox="0 0 18 18" fill="none" xmlns="http://www.w3.org/2000/svg">
<path fill-rule="evenodd" clip-rule="evenodd" d="M2.25536 7.03916C4.04611 10.9376 7.22787 14.027 11.1774 15.7022L11.1894 15.7072L11.9534 16.0472C12.4253 16.2576 12.9552 16.2992 13.4542 16.165C13.9531 16.0308 14.3907 15.7289 14.6934 15.3102L15.9674 13.5472C16.0048 13.4952 16.0209 13.4309 16.0124 13.3675C16.0038 13.304 15.9712 13.2463 15.9214 13.2062L13.6974 11.4112C13.6711 11.39 13.6409 11.3744 13.6084 11.3652C13.576 11.356 13.542 11.3535 13.5085 11.3578C13.4751 11.3621 13.4429 11.3731 13.4138 11.3902C13.3847 11.4073 13.3594 11.43 13.3394 11.4572L12.4734 12.6252C12.3713 12.763 12.2252 12.8616 12.0592 12.9048C11.8933 12.9479 11.7176 12.9329 11.5614 12.8622C8.60241 11.5217 6.2318 9.15111 4.89136 6.19216C4.82067 6.03596 4.80563 5.86024 4.84875 5.6943C4.89188 5.52835 4.99056 5.38219 5.12836 5.28016L6.29536 4.41316C6.32248 4.39312 6.34526 4.3678 6.36234 4.33873C6.37941 4.30965 6.39043 4.27742 6.39473 4.24398C6.39903 4.21053 6.39651 4.17656 6.38734 4.14412C6.37817 4.11167 6.36253 4.08141 6.34136 4.05516L4.54736 1.83116C4.50722 1.78129 4.44948 1.74872 4.38603 1.74017C4.32259 1.73161 4.25828 1.74771 4.20636 1.78516L2.43336 3.06516C2.01176 3.36927 1.70846 3.80998 1.57502 4.3124C1.44158 4.81481 1.48622 5.34794 1.70136 5.82116L2.25536 7.03816V7.03916ZM10.5854 17.0802C6.29446 15.2582 2.83796 11.9004 0.89236 7.66416L0.890359 7.66216L0.336359 6.44216C-0.0222207 5.6536 -0.0967321 4.76521 0.125485 3.92793C0.347701 3.09066 0.852939 2.35614 1.55536 1.84916L3.32836 0.569165C3.69149 0.307085 4.14127 0.19419 4.58512 0.253717C5.02898 0.313245 5.43312 0.540665 5.71436 0.889165L7.50936 3.11416C7.65749 3.29774 7.76698 3.50936 7.83125 3.73632C7.89552 3.96328 7.91324 4.2009 7.88335 4.43488C7.85346 4.66886 7.77657 4.89439 7.65731 5.0979C7.53805 5.30142 7.37888 5.47872 7.18936 5.61916L6.51936 6.11516C7.65214 8.31151 9.44102 10.1004 11.6374 11.2332L12.1344 10.5632C12.2748 10.3738 12.452 10.2147 12.6555 10.0956C12.8589 9.97641 13.0843 9.89958 13.3182 9.86969C13.552 9.8398 13.7895 9.85748 14.0164 9.92166C14.2433 9.98584 14.4548 10.0952 14.6384 10.2432L16.8634 12.0382C17.2121 12.3194 17.4397 12.7238 17.4993 13.1679C17.5588 13.612 17.4457 14.062 17.1834 14.4252L15.9094 16.1892C15.4051 16.8871 14.6759 17.3902 13.8445 17.614C13.013 17.8378 12.1299 17.7687 11.3434 17.4182L10.5854 17.0802Z" fill="#A9A9A9"/>
</svg>
