<svg width="20" height="20" viewBox="0 0 20 20" fill="none" xmlns="http://www.w3.org/2000/svg">
<path d="M18.772 8.16546L17.404 4.06046C17.2056 3.46294 16.8238 2.94316 16.3131 2.57497C15.8024 2.20678 15.1886 2.0089 14.559 2.00946H12V0.00946045H8V2.00946H5.441C4.81139 2.0089 4.19761 2.20678 3.68688 2.57497C3.17615 2.94316 2.79445 3.46294 2.596 4.06046L1.228 8.16546C0.864613 8.31794 0.554277 8.57422 0.335845 8.90222C0.117412 9.23023 0.000589089 9.61538 0 10.0095V15.0095C0 15.7625 0.423 16.4115 1.039 16.7525C1.026 16.8185 1 16.8785 1 16.9475V19.0095C1 19.2747 1.10536 19.529 1.29289 19.7166C1.48043 19.9041 1.73478 20.0095 2 20.0095H3C3.26522 20.0095 3.51957 19.9041 3.70711 19.7166C3.89464 19.529 4 19.2747 4 19.0095V17.0095H16V19.0095C16 19.2747 16.1054 19.529 16.2929 19.7166C16.4804 19.9041 16.7348 20.0095 17 20.0095H18C18.2652 20.0095 18.5196 19.9041 18.7071 19.7166C18.8946 19.529 19 19.2747 19 19.0095V16.9475C19 16.8785 18.974 16.8175 18.961 16.7525C19.2744 16.5816 19.5362 16.3297 19.7189 16.0231C19.9017 15.7165 19.9988 15.3664 20 15.0095V10.0095C20 9.18046 19.492 8.46846 18.772 8.16546ZM2 15.0095V10.0095H18L18.002 15.0095H2ZM5.441 4.00946H14.558C14.989 4.00946 15.371 4.28346 15.507 4.69346L16.613 8.00946H3.387L4.492 4.69346C4.55835 4.49425 4.68572 4.32099 4.85605 4.19822C5.02638 4.07545 5.23104 4.00941 5.441 4.00946Z" fill="#A9A9A9"/>
<path d="M4.5 14.0095C5.32843 14.0095 6 13.3379 6 12.5095C6 11.681 5.32843 11.0095 4.5 11.0095C3.67157 11.0095 3 11.681 3 12.5095C3 13.3379 3.67157 14.0095 4.5 14.0095Z" fill="#A9A9A9"/>
<path d="M15.5 14.0095C16.3284 14.0095 17 13.3379 17 12.5095C17 11.681 16.3284 11.0095 15.5 11.0095C14.6716 11.0095 14 11.681 14 12.5095C14 13.3379 14.6716 14.0095 15.5 14.0095Z" fill="#A9A9A9"/>
</svg>
